<svg width="26" height="26" fill="none" xmlns="http://www.w3.org/2000/svg">
    <g opacity="0.8">
        <path d="M3.422 4.844a3 3 0 013-3h8.576a4 4 0 013.233 1.643l3.579 4.91a4 4 0 01.768 2.356v10.403a3 3 0 01-3 3H6.421a3 3 0 01-3-3V4.844z"
              fill="#F8F6FF"></path>
        <path d="M6.422 2.344h8.576a3.5 3.5 0 012.7 1.273l.128.165 3.58 4.91c.436.598.671 1.32.671 2.062v10.402a2.5 2.5 0 01-2.5 2.5H6.422a2.5 2.5 0 01-2.5-2.5V4.844a2.5 2.5 0 012.5-2.5z"
              stroke="#D6CFFA" stroke-opacity="0.5"></path>
    </g>
    <path d="M14.67 9.687a2.52 2.52 0 012.52 2.505 2.493 2.493 0 01-2.497 2.504h-4.094l.01 2.368a.713.713 0 01-.713.718.72.72 0 01-.719-.718l-.01-2.368h-.004l-.019-4.228a.777.777 0 01.778-.78h4.749zm-4.078 3.578h4.095c.593 0 1.073-.48 1.07-1.073a1.08 1.08 0 00-1.08-1.074h-4.094l.01 2.147z"
          fill="#B9A4D7" opacity="0.9"></path>
</svg>