<svg width="26" height="26" fill="none" xmlns="http://www.w3.org/2000/svg">
    <g opacity="0.8">
        <path d="M3.422 4.844a3 3 0 013-3h8.576a4 4 0 013.233 1.643l3.579 4.91a4 4 0 01.768 2.357v10.402a3 3 0 01-3 3H6.421a3 3 0 01-3-3V4.844z"
              fill="#FDF7F7"></path>
        <path d="M6.422 2.344h8.576a3.5 3.5 0 012.7 1.273l.128.165 3.58 4.91c.436.598.671 1.32.671 2.062v10.402a2.5 2.5 0 01-2.5 2.5H6.422a2.5 2.5 0 01-2.5-2.5V4.844a2.5 2.5 0 012.5-2.5z"
              stroke="#EAC0C0" stroke-opacity="0.5"></path>
    </g>
    <path opacity="0.9"
          d="M16.791 15.863a3.731 3.731 0 01-2.156-.868c-1.195.26-2.331.637-3.468 1.1C10.264 17.688 9.42 18.5 8.69 18.5c-.145 0-.32-.029-.437-.116a.853.853 0 01-.495-.782c0-.26.058-.985 2.826-2.172a20.548 20.548 0 001.545-3.592c-.35-.695-1.107-2.404-.583-3.273.175-.318.525-.492.903-.463.292 0 .583.145.758.376.379.522.35 1.622-.146 3.244a8.744 8.744 0 001.807 2.318c.612-.116 1.224-.203 1.836-.203 1.37.029 1.573.666 1.544 1.043 0 .984-.961.984-1.457.984zM8.632 17.66l.087-.029c.408-.145.729-.434.962-.81a2.3 2.3 0 00-1.049.84zm3.876-8.69h-.088c-.029 0-.087 0-.116.03-.117.492-.03 1.013.175 1.477a2.42 2.42 0 00.029-1.506zm.204 4.2l-.03.059-.029-.03a23.857 23.857 0 01-.874 1.97l.058-.029v.058c.642-.231 1.34-.434 1.982-.58l-.03-.028h.088a8.892 8.892 0 01-1.165-1.42zm3.963 1.536c-.262 0-.496 0-.758.058.292.145.583.203.874.232.204.028.408 0 .583-.058 0-.087-.116-.232-.7-.232z"
          fill="#E9A4A7"></path>
</svg>