<svg width="26" height="26" fill="none" xmlns="http://www.w3.org/2000/svg">
    <g opacity="0.8">
        <path d="M3.422 4.687a3 3 0 013-3h8.576a4 4 0 013.233 1.644l3.579 4.91a4 4 0 01.768 2.356V21a3 3 0 01-3 3H6.421a3 3 0 01-3-3V4.687z"
              fill="#F4F4FF"></path>
        <path d="M6.422 2.187h8.576a3.5 3.5 0 012.7 1.274l.128.165 3.58 4.909c.436.599.671 1.322.671 2.063V21a2.5 2.5 0 01-2.5 2.5H6.422a2.5 2.5 0 01-2.5-2.5V4.687a2.5 2.5 0 012.5-2.5z"
              stroke="#B4C6FF" stroke-opacity="0.5"></path>
    </g>
    <path d="M14.827 11.308c.12.015.237.05.346.104l.105.059c.103.064.194.146.27.24l2.9 3.562h0c.597.731.073 1.825-.868 1.825H8.62a1.118 1.118 0 01-.955-1.701l1.272-2.084v0l.07-.102a1.12 1.12 0 01.727-.423l.122-.01c.124-.005.247.012.366.048l.115.043c.113.049.218.116.31.2l.984.896h0l.04.024.048.007.046-.012.037-.027h0l2.044-2.286.085-.086c.09-.081.193-.147.304-.195l.114-.042a1.12 1.12 0 01.357-.05l.121.01z"
          stroke="#9CA4DC"></path>
    <path d="M9 10.09a1 1 0 001.002 1 1.002 1.002 0 001.001-1 .999.999 0 00-1.001-1 1.002 1.002 0 00-1.002 1z"
          fill="#9CA4DC"></path>
</svg>