<svg width="26" height="26" fill="none" xmlns="http://www.w3.org/2000/svg">
    <g opacity="0.8">
        <path d="M3.422 4.844a3 3 0 013-3h8.576a4 4 0 013.233 1.643l3.579 4.91a4 4 0 01.768 2.356v10.403a3 3 0 01-3 3H6.421a3 3 0 01-3-3V4.844z"
              fill="#F7FDFF"></path>
        <path d="M6.422 2.344h8.576a3.5 3.5 0 012.7 1.273l.128.165 3.58 4.91c.436.598.671 1.32.671 2.062v10.402a2.5 2.5 0 01-2.5 2.5H6.422a2.5 2.5 0 01-2.5-2.5V4.844a2.5 2.5 0 012.5-2.5z"
              stroke="#C4E6F6" stroke-opacity="0.5"></path>
    </g>
    <path opacity="0.9"
          d="M17.613 10.505a.785.785 0 00-.786-.79H9.211a.793.793 0 00-.793.79.785.785 0 00.786.789h3.029l-.027 6.134c-.002.436.35.79.786.79a.794.794 0 00.794-.79l.027-6.134h3.007c.436 0 .79-.354.793-.79z"
          fill="#9ACDE5"></path>
</svg>