<svg width="26" height="26" fill="none" xmlns="http://www.w3.org/2000/svg">
    <g opacity="0.8">
        <path d="M3.422 4.844a3 3 0 013-3h8.576a4 4 0 013.233 1.643l3.579 4.91a4 4 0 01.768 2.356v10.403a3 3 0 01-3 3H6.421a3 3 0 01-3-3V4.844z"
              fill="#F7F8FF"></path>
        <path d="M6.422 2.344h8.576a3.5 3.5 0 012.7 1.273l.128.165 3.58 4.91c.436.598.671 1.32.671 2.062v10.402a2.5 2.5 0 01-2.5 2.5H6.422a2.5 2.5 0 01-2.5-2.5V4.844a2.5 2.5 0 012.5-2.5z"
              stroke="#BED9FD" stroke-opacity="0.5"></path>
    </g>
    <path opacity="0.9"
          d="M16.308 17.572c.41.432 1.153.153 1.152-.432l-.017-6.076a.665.665 0 00-.665-.663.66.66 0 00-.66.663l.011 4.423-2.643-2.79a.678.678 0 00-.98 0l-2.627 2.79-.012-4.423a.665.665 0 00-.665-.663.66.66 0 00-.661.663l.016 6.076c.002.585.747.864 1.154.432L13 14.079l3.307 3.493z"
          fill="#84B0E1"></path>
</svg>