<svg t="1766386308734" class="icon" viewBox="0 0 1024 1024" version="1.1" xmlns="http://www.w3.org/2000/svg" p-id="1974" width="200" height="200"><path d="M485.517241 0c225.703724 0 454.17931 59.392 458.963862 172.914759L944.551724 176.551724v406.068966h-0.388414a35.310345 35.310345 0 0 1-69.843862 0H873.931034V274.820414c-83.756138 50.405517-230.753103 77.082483-378.350344 78.247724L485.517241 353.103448c-147.597241 0-296.006621-25.547034-382.605241-74.875586L97.103448 274.820414V847.448276c0 35.981241 137.110069 105.931034 388.413793 105.931034 33.721379 0 65.359448-1.253517 94.914207-3.531034A35.310345 35.310345 0 1 1 591.448276 1018.703448v0.882759a1269.583448 1269.583448 0 0 1-105.931035 4.413793C259.813517 1024 31.337931 964.608 26.553379 851.085241L26.482759 847.448276V176.551724C26.482759 60.663172 257.412414 0 485.517241 0z m28.301242 686.397793V828.027586l-0.088276 5.190621c-0.723862 20.374069-5.826207 36.157793-15.254069 47.333517-10.24 12.111448-25.193931 18.167172-44.897104 18.167173-6.355862 0-13.364966-1.412414-21.02731-4.184276v-33.456552l3.124966 1.588965c5.102345 2.436414 9.710345 3.636966 13.85931 3.636966 14.81269 0 22.210207-11.652414 22.210207-35.010207v-144.896h42.072276z m97.085793-3.531034c13.241379 0 25.988414 1.959724 38.276414 5.879172v33.191724l-3.778207-2.08331a72.033103 72.033103 0 0 0-33.332966-7.856552c-6.708966 0-12.093793 1.200552-16.189793 3.601655-4.096 2.401103-6.144 5.543724-6.144 9.463173 0 6.62069 6.091034 11.987862 18.290759 16.066207 13.064828 4.360828 22.881103 8.333241 29.466483 11.899586 6.567724 3.566345 11.581793 8.280276 15.006896 14.124138 3.460414 5.826207 5.172966 12.570483 5.172966 20.250482 0 14.88331-5.967448 26.447448-17.902345 34.674759-11.934897 8.244966-27.877517 12.358621-47.810207 12.358621-15.677793 0-30.190345-2.471724-43.52-7.450483v-34.886621l4.819862 2.771862c12.782345 6.956138 25.335172 10.416552 37.640828 10.416552 17.425655 0 26.129655-4.660966 26.129655-13.965241 0-6.62069-7.168-12.164414-21.539311-16.595862-17.95531-5.579034-30.278621-11.793655-36.987586-18.626207-6.708966-6.832552-10.063448-16.083862-10.063448-27.771586 0-14.194759 5.755586-25.317517 17.249103-33.368276 11.493517-8.068414 26.571034-12.093793 45.197242-12.093793z m143.589517 0c23.251862 0 41.719172 6.69131 55.401931 20.056275 13.665103 13.364966 20.51531 31.337931 20.51531 53.901242 0 23.693241-7.009103 42.548966-21.044965 56.567172-14.018207 14.035862-33.015172 21.044966-56.955586 21.044966-23.534345 0-42.195862-6.726621-56.002207-20.197517-13.806345-13.453241-20.709517-31.77931-20.709517-54.942897 0-23.763862 7.13269-42.46069 21.362758-56.037517 14.247724-13.594483 33.385931-20.391724 57.432276-20.391724z m194.948414 0c32.044138 0 48.075034 19.862069 48.075034 59.586207v88.452413h-41.948689v-80.613517l-0.070621-3.601655c-0.829793-20.939034-9.216-31.426207-25.140965-31.426207-8.015448 0-14.671448 3.124966-19.985656 9.357241-5.314207 6.214621-7.980138 14.177103-7.980138 23.834483v82.449655h-42.195862v-144.507586h42.195862v22.987035h0.529656l2.030344-3.213242c10.469517-15.536552 25.299862-23.304828 44.491035-23.304827z m-195.990069 32.397241c-11.069793 0-19.667862 3.795862-25.811862 11.369931-6.144 7.591724-9.216 18.290759-9.216 32.132414 0 28.848552 11.758345 43.255172 35.29269 43.255172 22.545655 0 33.82731-14.795034 33.82731-44.420414 0-28.212966-11.369931-42.337103-34.092138-42.337103zM286.455172 423.724138c8.721655 0 16.825379 4.590345 21.327449 12.058483l106.601931 135.044413c10.663724 14.212414 0 28.424828-17.761104 28.424828h-56.849655v17.778759a135.044414 135.044414 0 0 0 74.610759 131.478069c7.115034 7.115034 7.115034 10.663724 0 10.663724-88.840828 0-184.79669-74.628414-184.79669-159.920552h-56.849655c-21.327448 0-28.424828-14.212414-17.778759-28.424828l110.168276-135.044413A24.876138 24.876138 0 0 1 286.455172 423.724138z m206.583173 194.206896c7.326897 0 13.241379 2.065655 17.778758 6.214621 4.519724 4.13131 6.797241 9.339586 6.797242 15.607173 0 6.355862-2.312828 11.652414-6.920828 15.889655-4.625655 4.201931-10.504828 6.320552-17.655172 6.320551-7.062069 0-12.888276-2.118621-17.496276-6.408827a20.674207 20.674207 0 0 1-6.920828-15.801379c0-6.444138 2.295172-11.687724 6.850207-15.748414 4.590345-4.06069 10.416552-6.073379 17.566897-6.07338zM485.517241 70.62069C234.213517 70.62069 97.103448 140.570483 97.103448 176.551724s137.110069 105.931034 388.413793 105.931035 388.413793-69.949793 388.413793-105.931035-137.110069-105.931034-388.413793-105.931034z" p-id="1975"></path></svg>