<svg viewBox="0 0 1024 1024" xmlns="http://www.w3.org/2000/svg" fill="currentColor">
    <path fill-rule="evenodd" d="
M23.87932707 176.41703737h976.24134586v793.1960935a30.50754206 30.50754206 0 0 1-30.50754206 30.50754206H54.38686913a30.50754206 30.50754206 0 0 1-30.50754206-30.50754206V176.41703737z
M54.38686913 23.87932707h915.22626174a30.50754206 30.50754206 0 0 1 30.50754206 30.50754206v128.92487275H23.87932707V54.38686913a30.50754206 30.50754206 0 0 1 30.50754206-30.50754206z
M246.5843841 636.56229422v48.32394662h107.26451786l-154.06308738 159.03581672L232.91700526 878.0905047l154.03257985-159.06632429v110.74237765h46.76806195v-193.20426384H246.5843841z
m584.73805861-193.20426386L784.52387318 298.44720559H737.75581122v241.52821045h46.76806196v-144.91082472l46.79856953 144.91082472H878.0905047V298.44720559h-46.76806199v144.91082477z
M651.96860297 298.44720559h-62.32690844c-21.50781714 0-38.95813119 18.06046491-38.98863875 40.26995551v160.98829947c0 22.20949061 17.4808216 40.20894041 38.98863875 40.26995547h62.32690844c21.53832469 0 38.95813119-18.06046491 39.01914628-40.26995547V338.7171611c0-22.20949061-17.4808216-40.23944796-39.01914628-40.26995551z
m-7.77942323 193.20426385H597.42111776v-144.91082477h46.76806198v144.91082477z
m-280.66938695-152.93430834v56.34743022c0 26.66359177 20.9586814 48.29343905 46.79856954 48.29343904H457.08642429v48.29343908h-93.5666315v48.3239466h101.34605471c21.50781714 0 38.95813119-18.06046491 38.98863876-40.26995547V443.35803036c0-26.66359177-20.9586814-48.29343905-46.76806197-48.29343904h-46.76806196v-48.32394665h93.53612393V298.44720559h-101.31554717c-21.53832469 0-38.95813119 18.06046491-39.0191463 40.26995551z
m-93.53612393 152.93430834h-46.7985695V443.35803036H176.41703737v56.34743021c0 22.20949061 17.4808216 40.20894041 38.98863874 40.26995547h62.35741596c21.50781714 0 38.95813119-18.06046491 38.98863875-40.26995547V298.44720559h-46.76806196v193.20426385z
" />
</svg>
