<svg t="1766386281900" class="icon" viewBox="0 0 1024 1024" version="1.1" xmlns="http://www.w3.org/2000/svg" p-id="1672" width="200" height="200"><path d="M836.11192889-5.80721778l193.69528889 195.00600889v775.87342222c0 35.75352889-28.98147555 64.80782222-64.73500445 64.80782222H188.39779555a64.73500445 64.73500445 0 0 1-64.80782222-64.80782222V868.07893333h-64.66218666A64.73500445 64.73500445 0 0 1-5.88003555 803.27111111V414.93390222c0-35.75352889 29.05429333-64.80782222 64.80782222-64.80782222h64.66218666v-291.27111111c0-35.68071111 29.05429333-64.66218667 64.80782222-64.66218667h647.71413334z m-65.39036444 64.66218667H188.39779555l-0.07281777 291.27111111h647.35004444c35.68071111 0 64.66218667 29.05429333 64.66218667 64.80782222V803.27111111c0 35.68071111-28.98147555 64.73500445-64.73500444 64.73500444h-647.35004445l0.14563555 97.06609778h776.67441778v-710.70151111h-97.28455111c-51.70062222 0-93.93493333-40.41386667-96.84764444-91.31349333l-0.21845333-5.75260444V58.85496889z m-246.99790223 436.90666666c-30.00092445 0-52.86570667 8.22840889-68.73998222 24.53959112-21.18997333 19.22389333-31.82136889 48.05973333-31.82136889 86.43470222 0 37.64679111 10.63139555 66.48263111 31.82136889 86.50752 15.87427555 16.31118222 38.73905778 24.46677333 68.73998222 24.46677333 29.92810667 0 52.86570667-8.15559111 68.66716445-24.46677333 21.11715555-20.02488889 31.67573333-48.78791111 31.67573333-86.50752 0-38.37496889-10.55857778-67.21080889-31.67573333-86.43470222-15.80145778-16.31118222-38.73905778-24.46677333-68.66716445-24.46677334z m-213.06481777 0.3640889c-26.43285333 0-46.53056 6.18951111-60.14748445 18.6413511a60.58439111 60.58439111 0 0 0-20.53461333 46.74901334c0 20.60743111 7.06332445 35.68071111 21.18997333 45.36547556 8.37404445 5.82542222 23.44732445 11.14112 45.21984 16.0199111l22.20942222 5.09724445c13.03438222 2.76707555 22.57351111 6.04387555 28.61738667 9.75758222a17.91317333 17.91317333 0 0 1 9.10222222 16.01991111c0 11.86929778-6.11669333 20.02488889-18.35008 24.39395556a77.18684445 77.18684445 0 0 1-25.19495111 3.42243556c-17.25781333 0-29.41838222-4.36906667-36.55452445-12.96156445a43.03530667 43.03530667 0 0 1-7.79150222-21.48124445H226.55431111c0 21.84533333 7.79150222 38.95751111 23.44732444 51.40935112 15.65582222 12.45184 37.13706667 18.71416889 64.44373334 18.71416888 26.72412445 0 47.33155555-6.33514667 62.04074666-18.93262222a60.43875555 60.43875555 0 0 0 21.9909689-47.76846222c0-18.71416889-6.26232889-32.98645333-18.78698667-42.81685333-8.00995555-6.33514667-20.02488889-11.43239111-35.82634667-15.29173333l-36.11761778-8.59249778a121.89696 121.89696 0 0 1-27.30666666-8.73813334 18.05880889 18.05880889 0 0 1-9.97603556-16.74808888c0-8.15559111 3.34961778-14.56355555 10.12167111-19.07825778a47.55000889 47.55000889 0 0 1 26.94257778-6.77205334 55.34151111 55.34151111 0 0 1 25.48622222 5.24288c10.26730667 5.31569778 15.80145778 14.27228445 16.52963556 26.94257778h42.08867555c-0.72817778-22.35505778-8.95658667-39.3216-24.53959111-51.04526222a91.45912889 91.45912889 0 0 0-56.50659555-17.54908444z m-117.38225778 6.11669333h-43.76348445v146.58218667c0 10.19448889-1.01944889 17.40344889-2.98552889 21.62688-3.34961778 7.28177778-10.19448889 10.84984889-20.46179555 10.84984888-10.48576 0-17.25781333-3.34961778-20.38897778-9.90321778-3.20398222-6.5536-5.02442667-17.98599111-5.38851555-34.22435555v-4.80597333h-41.36049778v4.80597333c0 24.68522667 4.66033778 44.12757333 13.90819555 58.39985778 9.32067555 14.27228445 27.52512 21.40842667 54.75896889 21.40842667s46.02083555-8.81095111 56.50659556-26.43285334c6.11669333-10.48576 9.17504-24.61240889 9.17504-42.37994666V502.24241778z m509.50599111 0h-45.94801778v209.64238222h40.77795555V562.97244445l85.63370667 148.91235555h43.83630223v-209.7152h-40.77795556v146.36373333l-83.52199111-146.36373333z m-179.13173333 30.72910222c17.40344889 0 31.16600889 6.40796445 41.36049777 19.22389333 10.19448889 12.88874667 15.29173333 31.02037333 15.29173333 54.61333334 0 23.52014222-5.09724445 41.72458667-15.29173333 54.61333333a50.02581333 50.02581333 0 0 1-41.28768 19.15107555 50.60835555 50.60835555 0 0 1-41.50613333-19.22389333c-10.41294222-12.81592889-15.58300445-31.02037333-15.58300444-54.61333333s5.17006222-41.79740445 15.51018666-54.61333334a50.60835555 50.60835555 0 0 1 41.50613334-19.15107555z" p-id="1673"></path></svg>