<svg t="1766385858271" class="icon" viewBox="0 0 1024 1024" version="1.1" xmlns="http://www.w3.org/2000/svg" p-id="1082" width="200" height="200"><path d="M147.85570487 727.74257019a53.42196976 53.42196976 0 0 1-53.42196976 53.42196977H-18.24287605v-96.10652129h58.45927708V242.83546004h107.63930384zM442.40562252 586.6316848v145.81679091a53.02428761 53.02428761 0 0 1-53.02428761 53.02428762H235.5446205a53.02428761 53.02428761 0 0 1-53.0242876-53.02428762v-161.19383431h105.38577161v123.81171156h48.4509428V611.42053925a36.58675845 36.58675845 0 0 0-18.4922203-34.59834766L225.53628621 508.15573915c-33.14017975-23.86092942-43.08223369-46.39625165-43.08223368-84.57373873v-132.56071901a53.02428761 53.02428761 0 0 1 53.02428761-53.02428761h152.44482687a53.02428761 53.02428761 0 0 1 53.0242876 53.02428761v145.61794983H335.49540263V328.93364704h-46.92649452v69.99205965a36.85187988 36.85187988 0 0 0 18.4922203 34.66462801L399.32338883 501.99166572c33.14017975 23.86092942 43.08223369 44.60668194 43.08223369 84.64001908zM689.23368131 785.80416512h-162.98340401a53.02428761 53.02428761 0 0 1-53.02428761-53.02428761V291.28640285a53.02428761 53.02428761 0 0 1 53.02428761-53.02428762h162.98340401a53.02428761 53.02428761 0 0 1 53.02428762 53.02428762v441.4271943a53.02428761 53.02428761 0 0 1-53.02428762 53.09056797z m-54.54873587-455.27978945h-53.88593227v362.95124866h53.88593227zM949.45037275 242.83546004h92.7925033v538.32907992h-104.5904073L869.91394133 488.93443489l2.31981259 292.23010507h-92.79250331V242.83546004h109.95911642l62.30353793 267.64009169z" p-id="1083"></path></svg>