<svg t="1766389955960" class="icon" viewBox="0 0 1024 1024" version="1.1" xmlns="http://www.w3.org/2000/svg" p-id="2280" width="200" height="200"><path d="M263.44865185 97.74775309c0-27.58919965-13.83602505-55.26124974-41.42522468-82.85044939H429.14955061c27.58919965 27.58919965 41.42522469 55.26124974 41.4252247 82.85044939 0-11.01910977-13.83602505 80.11638455-41.4252247 273.40648296-23.19812583 162.71828258 190.88743538 171.58328067 215.41116841 0 27.58919965-193.2900984 41.42522469-284.42559273 41.42522468-273.40648296 0-27.58919965-13.83602505-55.26124974-41.42522468-82.85044939H843.40179753c27.58919965 27.58919965 41.42522469 55.26124974 41.42522469 82.85044939L843.40179753 512c-27.58919965 358.99099717-248.55134815 524.69189595-662.80359506 497.1026963-55.17839929-3.64541977-55.17839929-72.74269456 0-207.12612347 0 27.58919965 13.83602505 41.42522469 41.4252247 41.4252247 211.93144951 0 350.04314864-69.01442434 414.25224691-207.12612345-55.26124974 27.58919965-138.11169911 41.42522469-248.55134816 41.42522468-165.70089876 0-179.37122291-84.17605657-165.70089875-207.12612345L263.44865185 97.74775309z" p-id="2281"></path></svg>