
<svg t="1766389930832" class="icon" viewBox="0 0 1024 1024" version="1.1" xmlns="http://www.w3.org/2000/svg" p-id="1828" width="200" height="200"><path d="M657.63555555 402.77333333h291.27111112c40.23182222 0 72.81777778 32.40391111 72.81777778 72.81777778v473.31555556c0 40.23182222-32.40391111 72.81777778-72.81777778 72.81777778H475.59111111c-40.23182222 0-72.81777778-32.40391111-72.81777778-72.81777778V657.63555555h145.63555556c60.65720889 0 109.22666667-48.89713778 109.22666666-109.22666666V402.77333333zM2.27555555 75.09333333c0-40.23182222 32.40391111-72.81777778 72.81777778-72.81777778h473.31555556c40.23182222 0 72.81777778 32.40391111 72.81777778 72.81777778v473.31555556c0 40.23182222-32.40391111 72.81777778-72.81777778 72.81777778H75.09333333c-40.23182222 0-72.81777778-32.40391111-72.81777778-72.81777778V75.09333333z m145.63555556 314.31793778h53.15697778v-28.18048h76.67712V495.79804445h56.32455111V361.23079111h78.24270222v23.48373334h57.89013333V206.34737778H334.06976v-39.10314667c0-11.4688 1.56558222-21.37201778 4.73315555-29.70965333a12.01493333 12.01493333 0 0 0 1.52917334-4.73315556c0-1.01944889-3.64088889-2.03889778-10.92266667-3.09475555h-53.26620444v76.64071111H147.91111111v183.06389333z m53.15697778-139.22759111h76.67712v68.8128h-76.64071111V250.22008889z m211.24437333 68.8128h-78.24270222V250.22008889h78.24270222v68.8128z m231.92462223 555.23555555l21.9181511-61.02129777h114.21468445l21.91815111 61.02129777h62.55047111L763.14851555 584.81777778h-73.54595555L584.81777778 874.26844445h59.45571555z m37.57397333-109.51793777l42.23431111-123.57176889h1.56558222l39.10314667 123.57176889h-82.90304zM948.90666667 293.54666667h-72.81777778a145.63555555 145.63555555 0 0 0-145.63555556-145.63555556v-72.81777778a218.45333333 218.45333333 0 0 1 218.45333334 218.45333334zM75.09333333 730.45333333h72.81777778a145.63555555 145.63555555 0 0 0 145.63555556 145.63555556v72.81777778a218.45333333 218.45333333 0 0 1-218.45333334-218.45333334z" p-id="1829"></path></svg>